<svg id="Layer_1" data-name="Layer 1" xmlns="http://www.w3.org/2000/svg" viewBox="0 0 2043 1596.05"><defs><style>.cls-1{fill:#c4c3c7;}.cls-1,.cls-3,.cls-6,.cls-7{stroke:#000;}.cls-1,.cls-2,.cls-3,.cls-6,.cls-7,.cls-8{stroke-miterlimit:10;}.cls-1,.cls-2,.cls-3,.cls-7,.cls-8{stroke-width:4px;}.cls-2{fill:#66c4ff;stroke:#10162f;}.cls-3{fill:#aee938;}.cls-4{fill:#10162f;}.cls-5{fill:#fff;}.cls-6,.cls-7,.cls-8{fill:none;}.cls-6{stroke-linecap:round;stroke-width:4.31px;}.cls-8{stroke:#fff;}</style></defs><polygon class="cls-1" points="1867.66 584.81 1742.47 668.68 1427.08 606.61 1552.27 522.75 1867.66 584.81"/><polygon class="cls-2" points="1867.66 933.05 1742.47 1016.91 1427.08 954.84 1552.27 870.98 1867.66 933.05"/><polygon class="cls-1" points="1742.47 1020.38 1867.66 936.51 1867.66 583.08 1742.47 666.95 1742.47 1020.38"/><polygon class="cls-1" points="1427.08 606.61 1742.47 668.68 1742.47 1016.91 1427.08 954.84 1427.08 606.61"/><polygon class="cls-3" points="1764.52 739.03 1847.73 683.29 1847.73 626.85 1764.52 682.59 1764.52 739.03"/><circle class="cls-4" cx="1829.55" cy="667.97" r="6.93"/><polygon class="cls-3" points="1764.52 818.73 1847.73 762.99 1847.73 706.54 1764.52 762.28 1764.52 818.73"/><circle class="cls-4" cx="1829.55" cy="747.67" r="6.93"/><polygon class="cls-3" points="1764.52 898.42 1847.73 842.68 1847.73 786.24 1764.52 841.98 1764.52 898.42"/><circle class="cls-4" cx="1829.55" cy="827.36" r="6.93"/><polygon class="cls-3" points="1764.52 978.12 1847.73 922.38 1847.73 865.93 1764.52 921.67 1764.52 978.12"/><circle class="cls-4" cx="1829.55" cy="907.06" r="6.93"/><path class="cls-5" d="M288.17,455q-15.68,0-24.85-9.86t-9.18-27.25q0-16.5,9.59-26.49t25.12-10q12.56,0,21.24,5.82l-4.15,10a31.79,31.79,0,0,0-16.79-5.13q-9.87,0-15.61,7.1t-5.73,19.07q0,12.4,5.54,19.19t15.8,6.79a38.94,38.94,0,0,0,17.82-4.5l1.76,10.36Q300.52,455,288.17,455Z"/><path class="cls-5" d="M339.07,454.74a27.64,27.64,0,0,1-9.15-1.3,11.9,11.9,0,0,1-5.74-4.12,17.13,17.13,0,0,1-2.93-6.74,48.12,48.12,0,0,1-.83-9.72V380.57l12.79-.83v52.88c0,4.81.57,8.08,1.71,9.79s3.35,2.56,6.64,2.56a45.12,45.12,0,0,0,6.2-.54l.34,9.13-1.19.25c-.77.16-1.5.3-2.2.41s-1.59.23-2.66.34A27,27,0,0,1,339.07,454.74Z"/><path class="cls-5" d="M355.75,392.53V381.59h12.84v10.94Zm0,61.47V400.34h12.79V454Z"/><path class="cls-5" d="M407.67,455q-12.93,0-20.14-7.45T380.33,427q0-12.79,6.79-20.36t18.5-7.62q11.08,0,17.21,6.94t6.13,18.4c0,.56,0,1.45,0,2.69s0,2.15,0,2.73H393.22q.19,7.53,4.13,11.65t10.81,4.13a33.86,33.86,0,0,0,16.9-4.59l1.8,9.08Q418.81,455,407.67,455Zm-14.21-33.3H416.9q0-6.54-3-10.06a10.23,10.23,0,0,0-8.25-3.52,11.26,11.26,0,0,0-8.32,3.42Q393.94,415,393.46,421.73Z"/><path class="cls-5" d="M440.36,454V400.34h10.31l1.41,6.79q8.21-8.1,18.21-8.11,9.38,0,14,5.4T489,420.07V454H476.15V421.63q0-6.5-2.1-9.72c-1.36-2.14-3.82-3.22-7.37-3.22a14.2,14.2,0,0,0-7.59,2.12,12.88,12.88,0,0,0-5,5.35,53.94,53.94,0,0,0-.92,11.72V454Z"/><path class="cls-5" d="M524,454.74a27.55,27.55,0,0,1-9.11-1.3,11.73,11.73,0,0,1-5.69-4.08,17.43,17.43,0,0,1-2.9-6.56,43.27,43.27,0,0,1-.86-9.35V408.1h-8.79l.49-6.93,9.18-.83,4.1-14.55,7.82-.05v14.6H531.6v7.76H518.27v25.59q0,6.1,1.75,8.69c1.18,1.73,3.34,2.59,6.5,2.59a38.86,38.86,0,0,0,6-.49l.34,9.18c-.07,0-.47.07-1.2.22s-1.43.28-2.1.39-1.52.22-2.56.32S524.94,454.74,524,454.74Z"/><path class="cls-5" d="M1520.37,444a45.29,45.29,0,0,1-23.19-6l3.22-10.5a48.5,48.5,0,0,0,10,4.11,37.85,37.85,0,0,0,10.53,1.56q6.3,0,9.52-2.71c2.15-1.81,3.22-4.4,3.22-7.79q0-6.74-9-9.33l-3.57-1.05c-1.95-.56-3.78-1.12-5.49-1.66s-2.94-.95-3.69-1.24q-14.4-5.09-14.4-19,0-9.7,6.91-15t18.33-5.27q12.95,0,22.32,5.32l-4,9.67q-9.57-4.29-17.77-4.3c-3.94,0-6.91.7-8.91,2.08s-3.07,3.69-3.2,6.91q0,6,5.91,7.76c.78.3,2.7.93,5.76,1.91l6,1.9q9.81,3.23,14,8t4.22,13.33q0,10.2-7.23,15.7T1520.37,444Z"/><path class="cls-5" d="M1582.94,444q-12.93,0-20.14-7.45T1555.6,416q0-12.79,6.78-20.36t18.51-7.62q11.08,0,17.21,6.94t6.13,18.4c0,.56,0,1.45,0,2.69s0,2.15,0,2.73h-35.69q.19,7.53,4.13,11.65t10.81,4.13a33.79,33.79,0,0,0,16.89-4.59l1.81,9.08Q1594.07,444,1582.94,444Zm-14.21-33.3h23.44q0-6.54-3-10.06a10.23,10.23,0,0,0-8.25-3.52,11.26,11.26,0,0,0-8.32,3.42Q1569.22,404,1568.73,410.73Z"/><path class="cls-5" d="M1615.68,443V389.34h10.74l1.66,8.2a17,17,0,0,1,15.29-8.44,24.22,24.22,0,0,1,3.41.19l-.19,10.7a26.61,26.61,0,0,0-4-.3q-7.08,0-10.58,3.76t-3.49,10.45V443Z"/><path class="cls-5" d="M1670.63,443l-21.38-53.66h13.57q.78,2.21,5,13.65t5.54,15.6q2.79,8.1,4,12.26s.28-1.1.83-3.18l1.59-5.88c.51-1.84.82-3,1-3.35,0-.06,1.52-4.55,4.47-13.47s4.7-14.13,5.25-15.63h13.48L1683.57,443Z"/><path class="cls-5" d="M1736,444q-12.95,0-20.14-7.45t-7.2-20.58q0-12.79,6.78-20.36t18.51-7.62q11.08,0,17.21,6.94t6.13,18.4c0,.56,0,1.45,0,2.69s0,2.15,0,2.73h-35.69q.2,7.53,4.12,11.65t10.82,4.13a33.79,33.79,0,0,0,16.89-4.59l1.81,9.08Q1747.13,444,1736,444Zm-14.21-33.3h23.44q0-6.54-3-10.06a10.26,10.26,0,0,0-8.25-3.52,11.29,11.29,0,0,0-8.33,3.42Q1722.27,404,1721.78,410.73Z"/><path class="cls-5" d="M1768.73,443V389.34h10.74l1.66,8.2a17,17,0,0,1,15.28-8.44,24.37,24.37,0,0,1,3.42.19l-.19,10.7a26.84,26.84,0,0,0-4.06-.3q-7.08,0-10.57,3.76t-3.49,10.45V443Z"/><path class="cls-5" d="M1466.65,1135v-50.55h5.95v45.29h22.25l-.21,5.26Z"/><path class="cls-5" d="M1507.92,1083.87v6.77h-5.74v-6.77Zm0,13.64V1135h-5.74v-37.49Z"/><path class="cls-5" d="M1530.53,1135.79a28.5,28.5,0,0,1-7.06-.82,17.91,17.91,0,0,1-5.25-2.12l.72-4.82a23.71,23.71,0,0,0,11.21,3q8.34,0,8.58-5.88a4.77,4.77,0,0,0-1.78-3.93q-1.77-1.42-7-3.21l-2.84-1c-3.28-1.1-5.62-2.45-7-4.07a9.45,9.45,0,0,1,1.4-13.36q3.54-2.91,9.69-2.91a26.9,26.9,0,0,1,11.59,2.46l-1.68,4.38a26,26,0,0,0-9.91-2.19,9.68,9.68,0,0,0-5.62,1.42,4.55,4.55,0,0,0-2,4,4,4,0,0,0,1.47,3.35,21.89,21.89,0,0,0,5.87,2.67c.76.27,1.7.59,2.84,1q5.67,1.85,8,4.36a9.5,9.5,0,0,1,2.36,6.79,9.82,9.82,0,0,1-3.72,8Q1536.75,1135.79,1530.53,1135.79Z"/><path class="cls-5" d="M1564.59,1135.69q-5.53,0-7.86-2.7t-2.46-8.72v-22.52h-5.58l.24-3.76,5.3-.48,2-8.58,3.76-.14v8.72h10.42v4.24h-10.42v21.5c0,2.84.43,4.85,1.3,6s2.34,1.74,4.44,1.74a45.39,45.39,0,0,0,4.89-.54l.24,4.51A38.71,38.71,0,0,1,1564.59,1135.69Z"/><path class="cls-5" d="M1593.08,1135.79q-8.17,0-12.87-5.2t-4.7-14.21q0-8.73,4.54-14.14a15.16,15.16,0,0,1,12-5.52,13.8,13.8,0,0,1,11,4.77q4.1,4.77,4.09,12.73c0,.28,0,.78,0,1.51s0,1.25,0,1.57h-25.73q.1,6.39,3.29,10a11,11,0,0,0,8.6,3.57,25.39,25.39,0,0,0,11.93-3.14l.89,4.61A24.45,24.45,0,0,1,1593.08,1135.79Zm5.75-31.36a8.51,8.51,0,0,0-6.88-3,9.17,9.17,0,0,0-7.15,3.09,14.23,14.23,0,0,0-3.24,8.46h19.79C1601.35,1109.28,1600.51,1106.42,1598.83,1104.43Z"/><path class="cls-5" d="M1615.79,1135v-37.49h4.78l.72,5.37a16.71,16.71,0,0,1,5.55-4.47,15.8,15.8,0,0,1,7.2-1.69q6.49,0,9.6,3.64t3.11,11.2V1135h-5.7q0-22.56,0-24.16-.13-4.78-1.93-7t-6-2.22a12.27,12.27,0,0,0-7.35,2.12,9.62,9.62,0,0,0-3.82,5.5,35.67,35.67,0,0,0-.35,5.27V1135Z"/><path class="cls-5" d="M1663.69,1083.87v6.77H1658v-6.77Zm0,13.64V1135H1658v-37.49Z"/><path class="cls-5" d="M1675.12,1135v-37.49h4.79l.71,5.37a16.84,16.84,0,0,1,5.56-4.47,15.76,15.76,0,0,1,7.19-1.69q6.5,0,9.61,3.64t3.11,11.2V1135h-5.71q0-22.56,0-24.16c-.09-3.19-.74-5.53-1.93-7s-3.2-2.22-6-2.22a12.27,12.27,0,0,0-7.35,2.12,9.63,9.63,0,0,0-3.83,5.5,35.78,35.78,0,0,0-.34,5.27V1135Z"/><path class="cls-5" d="M1722.07,1152.16l-.52-5.16h7a27.76,27.76,0,0,0,5.06-.41,9.7,9.7,0,0,0,3.58-1.35,9.51,9.51,0,0,0,2.33-2.08,8.14,8.14,0,0,0,1.35-3,22.26,22.26,0,0,0,.61-3.62c.11-1.2.16-2.66.16-4.39v-3.32a15.31,15.31,0,0,1-4.75,4.53A13.38,13.38,0,0,1,1730,1135a15.53,15.53,0,0,1-5.93-1.11,13.87,13.87,0,0,1-4.58-3,17.93,17.93,0,0,1-3.18-4.27,19.84,19.84,0,0,1-1.92-5,23.83,23.83,0,0,1-.59-5.23,27.27,27.27,0,0,1,1-7.59,20,20,0,0,1,3-6.22,13.5,13.5,0,0,1,5.22-4.29,16.8,16.8,0,0,1,7.4-1.56,13.93,13.93,0,0,1,6.44,1.42,14.6,14.6,0,0,1,4.94,4.36v-5h5.57v34.79c0,1.6,0,3-.12,4.19a28.32,28.32,0,0,1-.58,4,15.49,15.49,0,0,1-1.25,3.76,14.61,14.61,0,0,1-2.2,3.16,11.19,11.19,0,0,1-3.39,2.57,20.61,20.61,0,0,1-4.87,1.59,31.76,31.76,0,0,1-6.56.61Zm8.78-22a11.89,11.89,0,0,0,5.09-1,8.21,8.21,0,0,0,3.42-2.84,13.2,13.2,0,0,0,1.83-4,18.57,18.57,0,0,0,.6-4.85v-2.77a19.49,19.49,0,0,0-.62-5,13,13,0,0,0-1.89-4.14,8.69,8.69,0,0,0-3.42-2.85,11.29,11.29,0,0,0-5-1,10.13,10.13,0,0,0-4.29.89,9.08,9.08,0,0,0-3.18,2.34,14,14,0,0,0-2.12,3.39,17.26,17.26,0,0,0-1.25,3.91,21.43,21.43,0,0,0-.38,4,19.28,19.28,0,0,0,.41,3.93,17,17,0,0,0,1.3,3.79,13.3,13.3,0,0,0,2.16,3.23,9.32,9.32,0,0,0,3.16,2.24A10,10,0,0,0,1730.85,1130.12Z"/><path class="cls-5" d="M1799,1135q-.51-2.19-1-4.71a19.74,19.74,0,0,1-5.85,4.3,15.85,15.85,0,0,1-6.42,1.2,12.53,12.53,0,0,1-8.46-2.75c-2.13-1.84-3.2-4.47-3.2-7.92q0-5.73,4.36-8.5t12.56-3.46l3.4-.29,3.4-.29v-3.31q0-4-1.84-5.88t-5.81-1.92a25.39,25.39,0,0,0-11.18,2.74c-.11-.28-.41-1.07-.89-2.38s-.73-2-.75-2a23.21,23.21,0,0,1,5.93-2.24,29.32,29.32,0,0,1,7-.84q7,0,10.1,3.06t3.09,10.41V1135Zm-12.41-3.82a11.91,11.91,0,0,0,7.16-2.24,10.07,10.07,0,0,0,4-6v-6.32l-2.07.17c-1.27.12-2.09.18-2.48.21q-7.42.64-10.34,2.42a6.18,6.18,0,0,0-2.92,5.71,5.68,5.68,0,0,0,1.78,4.55A7.23,7.23,0,0,0,1786.56,1131.18Z"/><path class="cls-5" d="M1825.92,1135.69q-5.54,0-7.86-2.7t-2.46-8.72v-22.52H1810l.24-3.76,5.29-.48,2-8.58,3.76-.14v8.72h10.43v4.24h-10.43v21.5c0,2.84.44,4.85,1.3,6s2.35,1.74,4.44,1.74a45.13,45.13,0,0,0,4.89-.54l.24,4.51A38.59,38.59,0,0,1,1825.92,1135.69Z"/><path class="cls-5" d="M1533.73,1235.27v-53.76h5l.54,5.09q4.92-5.88,11.83-5.88a14.44,14.44,0,0,1,8.68,2.57,15,15,0,0,1,5.25,6.93,28.25,28.25,0,0,1,1.69,10.22,25.4,25.4,0,0,1-1.85,10,15.67,15.67,0,0,1-5.41,6.87,14.19,14.19,0,0,1-8.36,2.51,14.75,14.75,0,0,1-6.8-1.62,14,14,0,0,1-5.09-4.29q.19,3.69.2,7.17v13.85Zm16.61-20.3a9.11,9.11,0,0,0,4.65-1.18,9.25,9.25,0,0,0,3.32-3.23,16.35,16.35,0,0,0,1.91-4.66,23.63,23.63,0,0,0,.65-5.66,18.87,18.87,0,0,0-2.7-10.54,8.84,8.84,0,0,0-7.89-4.12q-10.87,0-10.87,14c0,5.09.84,8.91,2.54,11.49S1546.45,1215,1550.34,1215Z"/><path class="cls-5" d="M1608.47,1200.24q0,8.71-4.65,14.13t-12.85,5.42q-7.9,0-12.57-5.47t-4.66-14q0-8.74,4.68-14.15t12.85-5.4q8,0,12.62,5.42T1608.47,1200.24Zm-28.82.1q0,6.67,3,10.68t8.63,4q5.61,0,8.46-4c1.9-2.67,2.85-6.25,2.85-10.77s-.94-8.18-2.82-10.81-4.74-4-8.59-4a9.92,9.92,0,0,0-8.55,4Q1579.65,1193.58,1579.65,1200.34Z"/><path class="cls-5" d="M1634.05,1181.17a17.22,17.22,0,0,1,2.8.2l-.2,5.26a16.48,16.48,0,0,0-2.74-.27,9.92,9.92,0,0,0-7.77,3.34,11.87,11.87,0,0,0-3,8.25v21h-5.7q0-34.51,0-37.49h4.75l.55,6.73a15.78,15.78,0,0,1,5-5.12A11.52,11.52,0,0,1,1634.05,1181.17Z"/><path class="cls-5" d="M1655.39,1219.69q-5.54,0-7.86-2.7t-2.46-8.72v-22.52h-5.57l.24-3.76,5.3-.48,1.94-8.58,3.76-.14v8.72h10.43v4.24h-10.43v21.5c0,2.84.44,4.85,1.3,6s2.35,1.74,4.45,1.74a45.39,45.39,0,0,0,4.89-.54l.23,4.51A38.59,38.59,0,0,1,1655.39,1219.69Z"/><path class="cls-5" d="M1702,1219.79a21.59,21.59,0,0,1-8.39-1.56,13.86,13.86,0,0,1-6.07-4.76,12.69,12.69,0,0,1-2.32-7.63,13.52,13.52,0,0,1,2.8-8.51,15.78,15.78,0,0,1,7.83-5.26q-9.57-3.39-9.57-12.3a11.33,11.33,0,0,1,4.37-9.47q4.38-3.42,11.35-3.42t11.24,3.42a11.42,11.42,0,0,1,4.31,9.47,12.21,12.21,0,0,1-2.32,7.58,14.6,14.6,0,0,1-6.5,4.72,14.84,14.84,0,0,1,7.25,5.26,14.15,14.15,0,0,1,2.63,8.51,12.29,12.29,0,0,1-4.73,10.26A18.76,18.76,0,0,1,1702,1219.79Zm0-24.82a17.4,17.4,0,0,0-7.83,3.78,8.62,8.62,0,0,0-2.94,6.68,8.21,8.21,0,0,0,3,6.69,11.86,11.86,0,0,0,7.73,2.47,11.5,11.5,0,0,0,7.64-2.47,8.28,8.28,0,0,0,3-6.69,8.7,8.7,0,0,0-2.87-6.71A16.55,16.55,0,0,0,1702,1195Zm0-22.9a11.54,11.54,0,0,0-6.86,2,6.46,6.46,0,0,0-2.81,5.54q0,8.07,9.67,10.22,9.54-2.16,9.53-10.22a6.49,6.49,0,0,0-2.76-5.54A11.24,11.24,0,0,0,1702,1172.07Z"/><path class="cls-5" d="M1752,1217.79a16.82,16.82,0,0,1-15.91,0,14.87,14.87,0,0,1-5.48-5.62,28.91,28.91,0,0,1-3.08-8.34,50.5,50.5,0,0,1-1-10.5,53.37,53.37,0,0,1,.67-8.78,31.11,31.11,0,0,1,2.07-7.31,19.81,19.81,0,0,1,3.47-5.58,14.16,14.16,0,0,1,4.93-3.53,15.79,15.79,0,0,1,6.4-1.25,15.47,15.47,0,0,1,7.74,1.91,14.91,14.91,0,0,1,5.47,5.46,28,28,0,0,1,3.16,8.34,50.37,50.37,0,0,1,1.06,10.74,51.26,51.26,0,0,1-1,10.5,28.89,28.89,0,0,1-3,8.34A14.8,14.8,0,0,1,1752,1217.79Zm-2-43a7.87,7.87,0,0,0-12,0,17.58,17.58,0,0,0-3.74,7.45,42.53,42.53,0,0,0-1.25,10.85,44.25,44.25,0,0,0,1.25,11.06,18.11,18.11,0,0,0,3.74,7.6,7.8,7.8,0,0,0,12,0,18.11,18.11,0,0,0,3.74-7.6,44.25,44.25,0,0,0,1.25-11.06,42.53,42.53,0,0,0-1.25-10.85A17.58,17.58,0,0,0,1750,1174.83Z"/><path class="cls-5" d="M834.32,976.91H828.4V953.25H801.27v23.66h-5.92V926.35h5.92v21.71H828.4V926.35h5.92Z"/><path class="cls-5" d="M862.7,976.91h-5.94V931.58H841.2v-5.23h37v5.23H862.7Z"/><path class="cls-5" d="M903.77,976.91h-5.95V931.58H882.27v-5.23h37.05v5.23H903.77Z"/><path class="cls-5" d="M931.33,976.91h-6.05V925.77h16.48a27.42,27.42,0,0,1,6.8.79A17,17,0,0,1,954,929a10.78,10.78,0,0,1,3.66,4.31,14.42,14.42,0,0,1,1.3,6.29,23.68,23.68,0,0,1-.55,5.31,13.76,13.76,0,0,1-1.88,4.39,11.15,11.15,0,0,1-3.49,3.41,17.73,17.73,0,0,1-5.52,2.11,34.88,34.88,0,0,1-7.81.77c-2.35,0-5.13-.14-8.34-.44Zm8.92-26.6a21.89,21.89,0,0,0,5.75-.65,11,11,0,0,0,3.67-1.6,6.65,6.65,0,0,0,2-2.5,9.34,9.34,0,0,0,.9-2.82,22.73,22.73,0,0,0,.17-3.09c0-2.89-1-5-2.92-6.39a13.61,13.61,0,0,0-8-2H931.33v19Q937.93,950.31,940.25,950.31Z"/><path class="cls-5" d="M1022.25,976.91h-6.84l-7-15.86c-1.89-4.26-3.1-6.83-3.62-7.69q-2.51.17-5.92.17l-9-.28v23.66H983.8V925.77H1000c1.87,0,3.52.05,5,.14a41.76,41.76,0,0,1,4.29.5,17,17,0,0,1,3.71,1,13.47,13.47,0,0,1,2.94,1.64,8.14,8.14,0,0,1,2.2,2.41,12.06,12.06,0,0,1,1.32,3.33,18.13,18.13,0,0,1,.48,4.36,13.62,13.62,0,0,1-2.52,8.24,12.92,12.92,0,0,1-7.12,4.78,9.65,9.65,0,0,0,.68,1.23q.69,1.17,1.62,2.85c.63,1.13,1.11,2.07,1.46,2.82Zm-32.4-45.84v17.09c.93,0,2.86,0,5.79.07s5.19.07,6.78.07c4.36,0,7.39-.73,9.1-2.17s2.56-3.75,2.56-6.89q0-4.14-2.46-6.15t-8.24-2Z"/><path class="cls-5" d="M1046,977.69q-8.17,0-12.87-5.19t-4.7-14.22q0-8.71,4.54-14.14a15.16,15.16,0,0,1,12-5.52,13.8,13.8,0,0,1,11,4.77q4.1,4.77,4.09,12.73c0,.28,0,.78,0,1.51s0,1.25,0,1.57H1034.3q.09,6.39,3.29,10a11,11,0,0,0,8.6,3.58,25.41,25.41,0,0,0,11.93-3.15l.89,4.62A24.53,24.53,0,0,1,1046,977.69Zm5.76-31.36a8.55,8.55,0,0,0-6.89-3,9.17,9.17,0,0,0-7.15,3.09,14.29,14.29,0,0,0-3.24,8.46h19.79Q1054.26,949.33,1051.75,946.33Z"/><path class="cls-5" d="M1079.87,977.69a28.41,28.41,0,0,1-7-.82,17.69,17.69,0,0,1-5.25-2.12l.72-4.82a23.68,23.68,0,0,0,11.21,3q8.34,0,8.58-5.87a4.78,4.78,0,0,0-1.78-3.93c-1.18-1-3.51-2-7-3.22l-2.84-1q-4.92-1.63-7-4.07a9.45,9.45,0,0,1,1.4-13.36q3.54-2.91,9.69-2.91a26.83,26.83,0,0,1,11.58,2.47l-1.67,4.37a26.05,26.05,0,0,0-9.91-2.19,9.73,9.73,0,0,0-5.62,1.42,4.57,4.57,0,0,0-2,4,4,4,0,0,0,1.47,3.35,21.83,21.83,0,0,0,5.88,2.67c.75.27,1.7.59,2.84,1q5.67,1.85,8,4.35a9.54,9.54,0,0,1,2.36,6.79,9.81,9.81,0,0,1-3.73,8.05Q1086.09,977.69,1079.87,977.69Z"/><path class="cls-5" d="M1102,993.18V939.41h5l.54,5.09q4.92-5.88,11.83-5.88a14.44,14.44,0,0,1,8.68,2.57,15,15,0,0,1,5.25,6.94,28.39,28.39,0,0,1,1.69,10.22,25.38,25.38,0,0,1-1.85,10,15.62,15.62,0,0,1-5.42,6.87,14.16,14.16,0,0,1-8.35,2.51,14.75,14.75,0,0,1-6.8-1.62,14,14,0,0,1-5.1-4.29q.21,3.69.21,7.18V992.8Zm16.61-20.31a9.14,9.14,0,0,0,4.65-1.18,9.25,9.25,0,0,0,3.32-3.23,16.24,16.24,0,0,0,1.91-4.66,23.63,23.63,0,0,0,.65-5.66,18.87,18.87,0,0,0-2.7-10.54,8.84,8.84,0,0,0-7.9-4.12q-10.86,0-10.87,14,0,7.62,2.55,11.48T1118.58,972.87Z"/><path class="cls-5" d="M1176.7,958.14q0,8.72-4.64,14.13t-12.86,5.42q-7.89,0-12.56-5.47t-4.66-14q0-8.76,4.68-14.15t12.85-5.41q8,0,12.61,5.42T1176.7,958.14Zm-28.81.1q0,6.68,3,10.68t8.63,4q5.6,0,8.46-4t2.85-10.76q0-6.87-2.82-10.82t-8.59-4a9.92,9.92,0,0,0-8.55,4Q1147.89,951.47,1147.89,958.24Z"/><path class="cls-5" d="M1185.47,976.91v-37.5h4.78l.72,5.37a16.59,16.59,0,0,1,5.56-4.46,15.64,15.64,0,0,1,7.19-1.7q6.49,0,9.61,3.64t3.11,11.2v23.45h-5.71q0-22.56,0-24.17-.14-4.79-1.93-7t-6-2.22a12.25,12.25,0,0,0-7.34,2.12,9.63,9.63,0,0,0-3.83,5.5,35.87,35.87,0,0,0-.34,5.27v20.51Z"/><path class="cls-5" d="M1237.82,977.69a28.44,28.44,0,0,1-7.06-.82,17.8,17.8,0,0,1-5.25-2.12l.72-4.82a23.68,23.68,0,0,0,11.21,3q8.34,0,8.58-5.87a4.75,4.75,0,0,0-1.78-3.93c-1.18-1-3.51-2-7-3.22l-2.84-1q-4.92-1.63-7-4.07a9.45,9.45,0,0,1,1.4-13.36q3.54-2.91,9.69-2.91a26.91,26.91,0,0,1,11.59,2.47l-1.68,4.37a26,26,0,0,0-9.91-2.19,9.73,9.73,0,0,0-5.62,1.42,4.57,4.57,0,0,0-2,4,4,4,0,0,0,1.47,3.35,21.83,21.83,0,0,0,5.88,2.67c.75.27,1.7.59,2.84,1q5.67,1.85,8,4.35a9.54,9.54,0,0,1,2.36,6.79,9.81,9.81,0,0,1-3.73,8.05Q1244,977.69,1237.82,977.69Z"/><path class="cls-5" d="M1275.77,977.69q-8.16,0-12.87-5.19t-4.7-14.22q0-8.71,4.55-14.14a15.16,15.16,0,0,1,12-5.52,13.8,13.8,0,0,1,11.06,4.77q4.08,4.77,4.08,12.73c0,.28,0,.78,0,1.51s0,1.25,0,1.57h-25.74q.11,6.39,3.3,10a11,11,0,0,0,8.6,3.58,25.44,25.44,0,0,0,11.93-3.15l.88,4.62A24.48,24.48,0,0,1,1275.77,977.69Zm5.76-31.36a8.52,8.52,0,0,0-6.89-3,9.16,9.16,0,0,0-7.14,3.09,14.23,14.23,0,0,0-3.25,8.46H1284C1284,951.18,1283.21,948.33,1281.53,946.33Z"/><path class="cls-5" d="M860.61,569H854.7V545.35H827.56V569h-5.91V518.45h5.91v21.71H854.7V518.45h5.91Z"/><path class="cls-5" d="M889,569h-6V523.68H867.5v-5.23h37v5.23H889Z"/><path class="cls-5" d="M930.06,569h-5.95V523.68H908.56v-5.23h37.05v5.23H930.06Z"/><path class="cls-5" d="M957.62,569h-6V517.87h16.48a26.9,26.9,0,0,1,6.8.79,17,17,0,0,1,5.4,2.39,10.78,10.78,0,0,1,3.66,4.31,14.42,14.42,0,0,1,1.3,6.29,23.11,23.11,0,0,1-.55,5.31,13.63,13.63,0,0,1-1.88,4.39,11.12,11.12,0,0,1-3.49,3.4,17.72,17.72,0,0,1-5.52,2.12,35.41,35.41,0,0,1-7.81.77q-3.51,0-8.34-.44Zm8.92-26.59a21.89,21.89,0,0,0,5.75-.65,11.1,11.1,0,0,0,3.67-1.6,6.56,6.56,0,0,0,2-2.5,9.34,9.34,0,0,0,.9-2.82,22.73,22.73,0,0,0,.17-3.09q0-4.35-2.92-6.39a13.58,13.58,0,0,0-7.94-2.05H957.62v19C962,542.39,965,542.41,966.54,542.41Z"/><path class="cls-5" d="M1048.54,569h-6.83l-7-15.86q-2.84-6.39-3.62-7.69c-1.66.12-3.64.17-5.91.17l-9.06-.27V569h-6V517.87h16.17c1.86,0,3.52,0,5,.14a41.1,41.1,0,0,1,4.29.49,18.06,18.06,0,0,1,3.71,1,13.65,13.65,0,0,1,2.94,1.64,8.39,8.39,0,0,1,2.2,2.41,12.26,12.26,0,0,1,1.32,3.34,18,18,0,0,1,.48,4.35,13.63,13.63,0,0,1-2.51,8.24,13,13,0,0,1-7.13,4.79s.23.45.68,1.23,1,1.72,1.63,2.85,1.11,2.07,1.45,2.82Zm-32.4-45.83v17.09c.93,0,2.86,0,5.79.07s5.19.07,6.79.07q6.52,0,9.09-2.18c1.71-1.44,2.56-3.74,2.56-6.88q0-4.14-2.46-6.15t-8.24-2Z"/><path class="cls-5" d="M1072.28,569.79q-8.17,0-12.87-5.2t-4.7-14.21q0-8.73,4.55-14.14a15.14,15.14,0,0,1,12-5.52,13.82,13.82,0,0,1,11.06,4.77q4.08,4.77,4.08,12.73c0,.28,0,.78,0,1.51s0,1.25,0,1.57h-25.74q.11,6.39,3.3,10a11,11,0,0,0,8.59,3.57,25.39,25.39,0,0,0,11.93-3.14l.89,4.61A24.42,24.42,0,0,1,1072.28,569.79Zm5.76-31.36a8.53,8.53,0,0,0-6.89-3,9.13,9.13,0,0,0-7.14,3.09,14.18,14.18,0,0,0-3.25,8.46h19.79C1080.55,543.28,1079.71,540.42,1078,538.43Z"/><path class="cls-5" d="M1109,569.79a14.23,14.23,0,0,1-8.46-2.53,15.41,15.41,0,0,1-5.35-6.84,25.88,25.88,0,0,1-1.78-9.91,27.4,27.4,0,0,1,1.78-10.23,15.3,15.3,0,0,1,5.4-7,14.65,14.65,0,0,1,8.68-2.57q7,0,11.8,6.09l.41-5.3h5v53.42l-5.7.34V568.63c0-1.67,0-3.35.17-5.06a13.87,13.87,0,0,1-5,4.55A14.53,14.53,0,0,1,1109,569.79Zm.75-4.92q5.67,0,8.36-3.56t2.75-10.39q0-7.54-2.63-11.41t-8.51-3.87a8.93,8.93,0,0,0-6,2,11.11,11.11,0,0,0-3.43,5.23,24,24,0,0,0-1,7.4,25.48,25.48,0,0,0,.6,5.76,15.36,15.36,0,0,0,1.83,4.58,8.68,8.68,0,0,0,3.26,3.11A9.83,9.83,0,0,0,1109.72,564.87Z"/><path class="cls-5" d="M1135.78,556.49v-25h5.75v25a11,11,0,0,0,.7,4.17,5.92,5.92,0,0,0,2,2.65,8.52,8.52,0,0,0,3,1.35,16.06,16.06,0,0,0,3.81.41,10.93,10.93,0,0,0,6.92-1.95q2.47-2,2.48-6.63v-25h5.74v25a15.35,15.35,0,0,1-.82,5.16,11.2,11.2,0,0,1-2.21,3.82,11.5,11.5,0,0,1-3.33,2.51,16,16,0,0,1-4.12,1.43,24.3,24.3,0,0,1-9.31,0,15.86,15.86,0,0,1-4.15-1.45,12.12,12.12,0,0,1-3.39-2.53,11,11,0,0,1-2.24-3.81A15.33,15.33,0,0,1,1135.78,556.49Z"/><path class="cls-5" d="M1191.24,569.79q-8.17,0-12.87-5.2t-4.7-14.21q0-8.73,4.55-14.14a15.14,15.14,0,0,1,12-5.52,13.82,13.82,0,0,1,11.06,4.77q4.08,4.77,4.08,12.73c0,.28,0,.78,0,1.51s0,1.25,0,1.57h-25.74q.1,6.39,3.3,10a11,11,0,0,0,8.59,3.57,25.39,25.39,0,0,0,11.93-3.14l.89,4.61A24.4,24.4,0,0,1,1191.24,569.79Zm5.76-31.36a8.53,8.53,0,0,0-6.89-3,9.13,9.13,0,0,0-7.14,3.09,14.18,14.18,0,0,0-3.25,8.46h19.79C1199.51,543.28,1198.67,540.42,1197,538.43Z"/><path class="cls-5" d="M1225.13,569.79a28.44,28.44,0,0,1-7.06-.82,17.91,17.91,0,0,1-5.25-2.12l.72-4.82a23.71,23.71,0,0,0,11.21,3q8.34,0,8.58-5.88a4.77,4.77,0,0,0-1.78-3.93c-1.18-1-3.51-2-7-3.21l-2.84-1c-3.28-1.1-5.62-2.45-7-4.07a9.45,9.45,0,0,1,1.4-13.36q3.54-2.91,9.69-2.91a26.9,26.9,0,0,1,11.59,2.46l-1.68,4.38a26,26,0,0,0-9.91-2.19,9.65,9.65,0,0,0-5.62,1.42,4.56,4.56,0,0,0-2,4,4,4,0,0,0,1.47,3.35,22.15,22.15,0,0,0,5.88,2.67c.75.27,1.7.59,2.84,1q5.67,1.85,8,4.36a9.54,9.54,0,0,1,2.36,6.79,9.82,9.82,0,0,1-3.73,8.05C1232.57,568.84,1229.27,569.79,1225.13,569.79Z"/><path class="cls-5" d="M1259.19,569.69q-5.54,0-7.86-2.7t-2.47-8.72V535.75h-5.57l.24-3.76,5.3-.48,2-8.58,3.76-.14v8.72H1265v4.24h-10.42v21.5c0,2.84.43,4.85,1.3,6s2.34,1.74,4.44,1.74a45.39,45.39,0,0,0,4.89-.54l.24,4.51A38.71,38.71,0,0,1,1259.19,569.69Z"/><path class="cls-5" d="M302.4,1135h-6.83l-7-15.86c-1.89-4.26-3.09-6.82-3.62-7.69-1.66.12-3.63.17-5.91.17l-9.06-.27V1135H264v-51.13h16.17c1.87,0,3.52.05,4.95.14a41.1,41.1,0,0,1,4.29.49,18.06,18.06,0,0,1,3.71,1,13.65,13.65,0,0,1,2.94,1.64,8.43,8.43,0,0,1,2.21,2.41,12.58,12.58,0,0,1,1.31,3.34,18,18,0,0,1,.48,4.35,13.63,13.63,0,0,1-2.51,8.24,13,13,0,0,1-7.13,4.79s.23.45.68,1.23,1,1.72,1.63,2.85,1.11,2.07,1.45,2.82ZM270,1089.17v17.09c.93,0,2.87,0,5.79.07s5.19.06,6.79.06q6.53,0,9.09-2.17c1.71-1.44,2.56-3.74,2.56-6.88q0-4.14-2.46-6.15t-8.23-2Z"/><path class="cls-5" d="M309,1122.49v-25h5.74v25a11.15,11.15,0,0,0,.7,4.17,5.94,5.94,0,0,0,2,2.65,8.52,8.52,0,0,0,3,1.35,16.06,16.06,0,0,0,3.81.41,10.93,10.93,0,0,0,6.92-2q2.48-1.95,2.47-6.63v-25h5.75v25a15.35,15.35,0,0,1-.82,5.16,11.2,11.2,0,0,1-2.21,3.82A11.5,11.5,0,0,1,333,1134a16,16,0,0,1-4.12,1.43,24.3,24.3,0,0,1-9.31,0,15.93,15.93,0,0,1-4.16-1.45,12.07,12.07,0,0,1-3.38-2.53,11,11,0,0,1-2.24-3.81A15.33,15.33,0,0,1,309,1122.49Z"/><path class="cls-5" d="M348.58,1135v-37.49h4.78l.72,5.37a16.71,16.71,0,0,1,5.55-4.47,15.8,15.8,0,0,1,7.2-1.69q6.5,0,9.6,3.64t3.11,11.2V1135h-5.7q0-22.56,0-24.16-.14-4.78-1.93-7t-6-2.22a12.27,12.27,0,0,0-7.35,2.12,9.62,9.62,0,0,0-3.82,5.5,35.67,35.67,0,0,0-.35,5.27V1135Z"/><path class="cls-5" d="M389.75,1135v-37.49h4.78l.72,5.37a16.71,16.71,0,0,1,5.55-4.47,15.8,15.8,0,0,1,7.2-1.69q6.5,0,9.6,3.64t3.11,11.2V1135H415q0-22.56,0-24.16-.14-4.78-1.93-7t-6-2.22a12.27,12.27,0,0,0-7.35,2.12,9.62,9.62,0,0,0-3.82,5.5,35.67,35.67,0,0,0-.35,5.27V1135Z"/><path class="cls-5" d="M437.65,1083.87v6.77h-5.74v-6.77Zm0,13.64V1135h-5.74v-37.49Z"/><path class="cls-5" d="M449.08,1135v-37.49h4.79l.71,5.37a16.84,16.84,0,0,1,5.56-4.47,15.76,15.76,0,0,1,7.19-1.69q6.5,0,9.61,3.64t3.11,11.2V1135h-5.71q0-22.56,0-24.16-.15-4.78-1.93-7t-6-2.22a12.27,12.27,0,0,0-7.35,2.12,9.63,9.63,0,0,0-3.83,5.5,35.78,35.78,0,0,0-.34,5.27V1135Z"/><path class="cls-5" d="M496,1152.16l-.52-5.16h7a27.56,27.56,0,0,0,5.05-.41,9.68,9.68,0,0,0,3.59-1.35,9.51,9.51,0,0,0,2.33-2.08,8.14,8.14,0,0,0,1.35-3,22.26,22.26,0,0,0,.61-3.62c.11-1.2.16-2.66.16-4.39v-3.32a15.31,15.31,0,0,1-4.75,4.53A13.38,13.38,0,0,1,504,1135a15.5,15.5,0,0,1-5.93-1.11,13.77,13.77,0,0,1-4.58-3,17.67,17.67,0,0,1-3.18-4.27,19.84,19.84,0,0,1-1.92-5,23.83,23.83,0,0,1-.59-5.23,27.27,27.27,0,0,1,1-7.59,20,20,0,0,1,3-6.22,13.5,13.5,0,0,1,5.22-4.29,16.8,16.8,0,0,1,7.4-1.56,14,14,0,0,1,6.44,1.42,14.6,14.6,0,0,1,4.94,4.36v-5h5.57v34.79c0,1.6,0,3-.12,4.19a28.32,28.32,0,0,1-.58,4,15.49,15.49,0,0,1-1.25,3.76,14.61,14.61,0,0,1-2.2,3.16,11.19,11.19,0,0,1-3.39,2.57,20.61,20.61,0,0,1-4.87,1.59,31.76,31.76,0,0,1-6.56.61Zm8.78-22a11.89,11.89,0,0,0,5.09-1,8.21,8.21,0,0,0,3.42-2.84,13.2,13.2,0,0,0,1.83-4,18.57,18.57,0,0,0,.6-4.85v-2.77a19.49,19.49,0,0,0-.62-5,13,13,0,0,0-1.89-4.14,8.69,8.69,0,0,0-3.42-2.85,11.29,11.29,0,0,0-5-1,10.13,10.13,0,0,0-4.29.89,9.08,9.08,0,0,0-3.18,2.34,13.72,13.72,0,0,0-2.12,3.39,17.26,17.26,0,0,0-1.25,3.91,21.43,21.43,0,0,0-.38,4A19.28,19.28,0,0,0,494,1120a17,17,0,0,0,1.3,3.79,13.3,13.3,0,0,0,2.16,3.23,9.32,9.32,0,0,0,3.16,2.24A10,10,0,0,0,504.81,1130.12Z"/><path class="cls-5" d="M266.07,1168.45h14.49q9.75,0,14.44,3t4.7,9.46a15,15,0,0,1-.12,1.9,13,13,0,0,1-.61,2.41,10.37,10.37,0,0,1-1.35,2.68,11,11,0,0,1-2.51,2.43,13.67,13.67,0,0,1-3.88,1.93,12.24,12.24,0,0,1,7.72,4.31,12.61,12.61,0,0,1,2.63,8.06q0,6.87-4.49,10.63T283.71,1219H266.07Zm5.91,21.74h10.84q5.3,0,8-1.85c1.8-1.23,2.7-3.41,2.7-6.56s-1.08-5.35-3.23-6.54-5.5-1.8-10-1.8H272Zm0,4.75v19.21h10.56q6.43,0,9.64-2.37c2.14-1.59,3.22-4.06,3.22-7.4,0-3.49-1.16-5.93-3.47-7.34s-5.92-2.1-10.82-2.1Z"/><path class="cls-5" d="M326.48,1181.17a17.35,17.35,0,0,1,2.81.2l-.21,5.26a16.47,16.47,0,0,0-2.73-.27,9.93,9.93,0,0,0-7.78,3.34,11.91,11.91,0,0,0-3,8.25v21h-5.71q0-34.51,0-37.49h4.75l.54,6.73a15.78,15.78,0,0,1,5-5.12A11.57,11.57,0,0,1,326.48,1181.17Z"/><path class="cls-5" d="M368.16,1200.24q0,8.71-4.65,14.13t-12.85,5.42q-7.89,0-12.56-5.47t-4.66-14q0-8.74,4.68-14.15t12.85-5.4q8,0,12.61,5.42T368.16,1200.24Zm-28.81.1q0,6.67,3,10.68t8.63,4q5.6,0,8.46-4c1.9-2.67,2.85-6.25,2.85-10.77s-.94-8.18-2.82-10.81-4.75-4-8.6-4a9.91,9.91,0,0,0-8.54,4Q339.35,1193.58,339.35,1200.34Z"/><path class="cls-5" d="M409.06,1219q-7.9-25.21-9.78-31.41-1,3.77-2.42,8.14t-2.4,7.52q-1,3.13-2.66,8.13t-2.5,7.62h-6.15l-10.7-37.49h5.92l8,30.69q1.67-5.46,9.84-30.69h6.46q8.13,25.77,9.57,30.59l7.93-30.59h5.85L415.25,1219Z"/><path class="cls-5" d="M443.46,1219.79a28.5,28.5,0,0,1-7.06-.82,17.91,17.91,0,0,1-5.25-2.12l.72-4.82a23.71,23.71,0,0,0,11.21,3q8.34,0,8.58-5.88a4.77,4.77,0,0,0-1.78-3.93q-1.77-1.42-7-3.21l-2.83-1c-3.29-1.1-5.63-2.45-7-4.07a9.47,9.47,0,0,1,1.4-13.36q3.54-2.91,9.69-2.91a26.9,26.9,0,0,1,11.59,2.46l-1.68,4.38a26,26,0,0,0-9.91-2.19,9.68,9.68,0,0,0-5.62,1.42,4.55,4.55,0,0,0-2,4,4,4,0,0,0,1.47,3.35,21.83,21.83,0,0,0,5.88,2.67c.75.27,1.69.59,2.83,1,3.79,1.23,6.46,2.69,8,4.36a9.54,9.54,0,0,1,2.35,6.79,9.79,9.79,0,0,1-3.72,8Q449.68,1219.79,443.46,1219.79Z"/><path class="cls-5" d="M481.42,1219.79q-8.18,0-12.87-5.2t-4.7-14.21q0-8.73,4.54-14.14a15.16,15.16,0,0,1,12-5.52,13.8,13.8,0,0,1,11.05,4.77q4.09,4.77,4.09,12.73c0,.28,0,.78,0,1.51s0,1.25,0,1.57H469.73q.09,6.39,3.29,10a11,11,0,0,0,8.6,3.57,25.39,25.39,0,0,0,11.93-3.14l.89,4.61A24.45,24.45,0,0,1,481.42,1219.79Zm5.75-31.36a8.51,8.51,0,0,0-6.88-3,9.17,9.17,0,0,0-7.15,3.09,14.26,14.26,0,0,0-3.24,8.46h19.79C489.69,1193.28,488.85,1190.42,487.17,1188.43Z"/><path class="cls-5" d="M520.94,1181.17a17.35,17.35,0,0,1,2.81.2l-.21,5.26a16.47,16.47,0,0,0-2.73-.27,10,10,0,0,0-7.78,3.34,11.91,11.91,0,0,0-3,8.25v21h-5.71q0-34.51,0-37.49h4.75l.55,6.73a15.75,15.75,0,0,1,4.95-5.12A11.57,11.57,0,0,1,520.94,1181.17Z"/><rect class="cls-1" x="181.38" y="545.88" width="411.24" height="345.86"/><rect class="cls-1" x="357.14" y="668.58" width="71.28" height="586.06" transform="translate(-568.83 1354.39) rotate(-90)"/><rect class="cls-3" x="206.98" y="575.22" width="361.69" height="274.63"/><line class="cls-6" x1="238.78" y1="689.61" x2="278.42" y2="605.26"/><line class="cls-6" x1="264.7" y1="691.49" x2="295.36" y2="628.36"/><rect class="cls-1" x="340.72" y="892.16" width="107.97" height="32.7"/><circle cx="176.76" cy="961.05" r="9.24"/><circle cx="147.93" cy="961.39" r="9.24"/><line class="cls-6" x1="523.31" y1="973.37" x2="421.66" y2="973.37"/><line class="cls-6" x1="523.31" y1="951.81" x2="421.66" y2="951.81"/><line class="cls-6" x1="654.23" y1="973.37" x2="552.58" y2="973.37"/><line class="cls-6" x1="654.23" y1="951.81" x2="552.58" y2="951.81"/><rect class="cls-7" x="271.94" y="893.6" width="33.11" height="137.21" transform="translate(-673.71 1250.7) rotate(-90)"/><path class="cls-8" d="M657,667s337.2-146.78,724.19,13"/><polygon class="cls-5" points="1359.04 692.21 1357.34 687.72 1379.47 679.35 1369.5 657.88 1373.86 655.86 1386 682 1359.04 692.21"/><path class="cls-8" d="M1386,823.45s-337.2,146.78-724.19-13"/><polygon class="cls-5" points="683.96 798.24 685.66 802.73 663.53 811.11 673.5 832.57 669.14 834.59 657 808.45 683.96 798.24"/></svg>